<?xml version="1.0" encoding="utf-8"?>
<!-- Generator: Adobe Illustrator 22.0.0, SVG Export Plug-In . SVG Version: 6.00 Build 0)  -->
<svg version="1.1" id="Capa_1" xmlns="http://www.w3.org/2000/svg" xmlns:xlink="http://www.w3.org/1999/xlink" x="0px" y="0px"
	 viewBox="0 0 512 166.8" style="enable-background:new 0 0 512 166.8;" xml:space="preserve">
<style type="text/css">
	.st0{fill:#E44D26;}
	.st1{fill:#F16529;}
	.st2{fill:#EBEBEB;}
	.st3{fill:#FFFFFF;}
	.st4{fill:#4F6272;}
</style>
<title>HTML5 Logo</title>
<polygon class="st0" points="378.3,150.1 364.9,-0.1 512,-0.1 498.6,150 438.3,166.8 "/>
<polygon class="st1" points="438.4,154 487.1,140.5 498.6,12.2 438.4,12.2 "/>
<polygon class="st2" points="438.4,67.9 414.1,67.9 412.4,49 438.4,49 438.4,30.6 438.4,30.6 392.3,30.6 392.7,35.5 397.2,86.3 
	438.4,86.3 "/>
<polygon class="st2" points="438.4,115.7 438.4,115.7 417.8,110.2 416.5,95.5 406.6,95.5 398,95.5 400.6,124.4 438.4,134.9 
	438.4,134.9 "/>
<path d="M0,72.4h27.1v26.8h24.8V72.4h27.1v81H51.9v-27.1H27.1v27.1H0L0,72.4L0,72.4z"/>
<path d="M114.5,99.3H90.7V72.4h74.8v26.9h-23.8v54.2h-27.1L114.5,99.3L114.5,99.3z"/>
<path d="M177.3,72.4h28.2l17.4,28.5l17.4-28.5h28.2v81h-27v-40.2l-18.6,28.8h-0.5l-18.6-28.8v40.2h-26.5V72.4z"/>
<path d="M282,72.4h27.1v54.2h38.1v26.8H282V72.4z"/>
<polygon class="st3" points="438.4,67.9 438.4,86.3 461.1,86.3 458.9,110.2 438.4,115.7 438.4,134.9 476.1,124.4 476.4,121.3 
	480.7,72.8 481.2,67.9 476.2,67.9 "/>
<polygon class="st3" points="438.4,30.6 438.4,42 438.4,49 438.4,49 482.8,49 482.8,49 482.9,49 483.2,44.9 484.1,35.5 484.5,30.6 
	"/>
<g>
	<path class="st4" d="M35.1,53c-1.3,1.9-3.3,3.5-5.8,4.8c-2.5,1.4-5.8,2-9.8,2c-5.1,0-9.1-1.5-12.2-4.4c-3.1-3-4.6-7.2-4.6-12.6
		V28.6c0-5.4,1.5-9.6,4.5-12.6c3-3,6.9-4.5,11.8-4.5c5.1,0,9,1.2,11.6,3.6c2.6,2.4,3.9,5.9,3.8,10.3l-0.1,0.2h-8.6
		c0-2.5-0.5-4.2-1.6-5.4c-1.1-1.1-2.7-1.7-4.9-1.7c-2.3,0-4.2,0.8-5.5,2.5c-1.3,1.6-2,4.1-2,7.4v14.3c0,3.4,0.7,5.9,2,7.5
		c1.3,1.6,3.2,2.5,5.7,2.5c1.8,0,3.2-0.2,4.2-0.6c1-0.4,1.8-1,2.3-1.7V41h-7.2v-6.3h16.3V53z"/>
	<path class="st4" d="M74.4,12.2v30.7c0,5.3-1.5,9.5-4.6,12.5c-3.1,3-7.1,4.5-12,4.5c-4.9,0-8.9-1.5-11.9-4.5
		c-3.1-3-4.6-7.2-4.6-12.5V12.2h9.1v30.7c0,3.2,0.7,5.7,2,7.3c1.3,1.7,3.2,2.5,5.5,2.5c2.3,0,4.2-0.8,5.5-2.5c1.3-1.7,2-4.1,2-7.4
		V12.2H74.4z"/>
	<path class="st4" d="M90.9,59.2h-9.1v-47h9.1V59.2z M87.7-1h10.1l0.1,0.2l-8.1,8.4h-7.9L87.7-1z"/>
	<path class="st4" d="M120.1,49.1h-11.7l-2.6,10.2h-9.5l13.3-47h9.4l13.3,47h-9.5L120.1,49.1z M110.2,41.9h8L114.3,27h-0.2
		L110.2,41.9z"/>
	<path class="st4" d="M150.7,59.2v-47h13.5c4.9,0,8.7,1.1,11.5,3.2c2.7,2.1,4.1,5.3,4.1,9.6c0,2.2-0.5,4.2-1.5,5.9
		c-1,1.7-2.5,3-4.4,3.9c2.6,0.5,4.6,1.8,5.9,3.8c1.3,2,1.9,4.3,1.9,6.9c0,4.5-1.3,7.9-3.9,10.2c-2.6,2.3-6.3,3.5-11.2,3.5H150.7z
		 M159.8,32.1h4.8c2,0,3.5-0.6,4.5-1.6c1-1.1,1.5-2.6,1.5-4.6c0-2.2-0.5-3.9-1.6-4.9c-1.1-1.1-2.7-1.6-4.8-1.6h-4.4V32.1z
		 M159.8,38.4v13.7h6.6c2,0,3.5-0.6,4.5-1.7c1-1.1,1.5-2.7,1.5-4.9c0-2.2-0.5-4-1.4-5.2c-0.9-1.2-2.4-1.9-4.3-1.9h-0.3H159.8z"/>
	<path class="st4" d="M208.4,49.1h-11.7L194,59.2h-9.5l13.3-47h9.4l13.3,47H211L208.4,49.1z M203.7-1h10.1l0.1,0.2l-8.1,8.4h-7.9
		L203.7-1z M198.5,41.9h8L202.6,27h-0.2L198.5,41.9z"/>
	<path class="st4" d="M245.1,47c0-1.9-0.5-3.3-1.4-4.4c-1-1.1-2.7-2.1-5.1-3.2c-4.8-1.7-8.4-3.6-10.9-5.8s-3.6-5.2-3.6-9
		c0-3.9,1.4-7,4.2-9.4c2.8-2.4,6.3-3.6,10.6-3.6c4.6,0,8.2,1.3,11,3.9c2.8,2.6,4.1,6,4,10.4l-0.1,0.2h-8.8c0-2.4-0.5-4.3-1.6-5.5
		c-1.1-1.3-2.6-1.9-4.7-1.9c-1.7,0-3.1,0.6-4.1,1.7c-1,1.2-1.5,2.6-1.5,4.3c0,1.6,0.5,2.9,1.6,3.9c1.1,1,3,2.2,5.6,3.4
		c4.5,1.5,8,3.4,10.3,5.7c2.3,2.3,3.5,5.4,3.5,9.3c0,4-1.4,7.2-4.1,9.5c-2.7,2.3-6.4,3.5-10.9,3.5c-4.5,0-8.3-1.2-11.4-3.7
		c-3.2-2.5-4.7-6.3-4.6-11.3l0.1-0.2h8.9c0,2.9,0.6,5.1,1.8,6.4c1.2,1.3,3,1.9,5.3,1.9c2,0,3.4-0.5,4.4-1.6
		C244.6,50.2,245.1,48.8,245.1,47z"/>
	<path class="st4" d="M269.6,59.2h-9.1v-47h9.1V59.2z"/>
	<path class="st4" d="M308.2,44.6l0.1,0.2c0.1,5-1.2,8.8-3.9,11.3c-2.7,2.5-6.4,3.8-11.4,3.8c-5.1,0-9.1-1.5-12-4.5
		c-3-3-4.5-7.2-4.5-12.7V28.8c0-5.5,1.4-9.7,4.3-12.7c2.9-3,6.7-4.5,11.6-4.5c5.1,0,9.1,1.2,11.8,3.7s4.1,6.3,4,11.3l-0.1,0.2h-8.8
		c0-3-0.5-5.1-1.6-6.3c-1.1-1.2-2.8-1.8-5.3-1.8c-2.3,0-4,0.8-5.1,2.5c-1.1,1.6-1.7,4.2-1.7,7.6v14c0,3.4,0.6,6,1.8,7.6
		s3.1,2.5,5.5,2.5c2.3,0,3.9-0.6,4.9-1.8c1-1.2,1.5-3.3,1.5-6.4H308.2z"/>
	<path class="st4" d="M334.8,49.1h-11.7l-2.6,10.2h-9.5l13.3-47h9.4l13.3,47h-9.5L334.8,49.1z M325,41.9h8L329.1,27h-0.2L325,41.9z"
		/>
</g>
</svg>
